#!OML:ASF F:\VICON\USERDATA\INSTALL\rory3\rory3.ASF
:FULLY-SPECIFIED
:DEGREES
403
root -1.64814 18.1063 13.131 -7.39795 -94.832 5.15762
lowerback 10.8231 0.126324 0.0955081
upperback 0.790212 0.220216 1.57864
thorax -5.25281 0.103852 1.56492
lowerneck -22.5827 -5.60584 -11.2049
upperneck 27.5132 -6.68927 7.63495
head 13.779 -3.18573 3.66172
rclavicle -1.78409e-014 -5.56597e-015
rhumerus -38.605 -17.6964 -74.7881
rradius 29.5736
rwrist 5.81224
rhand -15.4666 8.56559
rfingers 7.12502
rthumb 10.7147 -21.1412
lclavicle -1.78409e-014 -5.56597e-015
lhumerus -36.251 4.03325 84.2172
lradius 29.4829
lwrist -6.84266
lhand -17.0354 26.2068
lfingers 7.12502
lthumb 9.20123 55.986
rfemur -11.0274 -2.87506 23.9531
rtibia 21.6165
rfoot -5.773 3.82947
rtoes 17.8406
lfemur 3.39632 -2.75684 -20.3248
ltibia 44.5779
lfoot 27.1604 -12.8001
ltoes 13.8301
404
root -1.78331 18.1256 13.1093 -11.5344 -94.7699 9.16652
lowerback 10.9791 0.222103 0.463895
upperback 0.771704 0.396054 1.63386
thorax -5.36204 0.182017 1.38841
lowerneck -22.5132 -5.69989 -11.4649
upperneck 27.5427 -6.8731 8.02532
head 13.8285 -3.24407 3.83095
rclavicle 9.93923e-016 4.37326e-015
rhumerus -38.4264 -17.124 -74.968
rradius 29.7327
rwrist 5.25767
rhand -15.4809 8.53177
rfingers 7.12502
rthumb 10.7009 -21.1757
lclavicle 9.93923e-016 4.37326e-015
lhumerus -36.4604 3.33644 84.4638
lradius 29.4556
lwrist -6.78389
lhand -17.4476 25.9675
lfingers 7.12502
lthumb 8.80338 55.7639
rfemur -9.99939 -2.60128 24.2837
rtibia 20.9228
rfoot -5.83547 3.47931
rtoes 19.4906
lfemur 2.11595 -2.85439 -19.8375
ltibia 46.8038
lfoot 27.3753 -13.4389
ltoes 13.5413
405
root -1.9104 18.1316 13.0863 -16.7863 -94.7241 14.3347
lowerback 11.1529 0.262472 0.81813
upperback 0.741199 0.50042 1.73014
thorax -5.4914 0.225115 1.27346
lowerneck -22.4442 -5.70748 -11.4251
upperneck 27.4879 -6.95446 8.17417
head 13.8057 -3.25628 3.86852
rclavicle -1.11816e-014 -7.95139e-016
rhumerus -38.1836 -16.7053 -75.1149
rradius 29.8339
rwrist 5.13937
rhand -15.4968 8.56064
rfingers 7.12502
rthumb 10.6856 -21.1476
lclavicle -1.11816e-014 -7.95139e-016
lhumerus -36.6645 2.67021 84.7025
lradius 29.4787
lwrist -6.77082
lhand -18.4362 26.3042
lfingers 7.12502
lthumb 7.84939 56.1385
rfemur -9.05199 -2.58928 24.7902
rtibia 20.2473
rfoot -5.92278 3.17128
rtoes 19.251
lfemur 0.766014 -2.82712 -19.1884
ltibia 48.9544
lfoot 26.7413 -14.1575
ltoes 12.6841
406
root -2.0386 18.131 13.0673 -23.0238 -94.9171 20.5534
lowerback 11.2033 0.340604 1.35805
upperback 0.713303 0.678346 1.86133
thorax -5.54738 0.299478 1.07857
lowerneck -22.3392 -5.77552 -11.5265
upperneck 27.3688 -7.11162 8.45222
head 13.7706 -3.29901 3.96666
rclavicle 2.98177e-016 -6.36111e-015
rhumerus -37.9389 -16.4863 -75.142
rradius 29.9196
rwrist 5.33894
rhand -14.9025 8.80615
rfingers 7.12502
rthumb 11.2588 -20.8717
lclavicle 2.98177e-016 -6.36111e-015
lhumerus -36.8533 2.09585 84.9485
lradius 29.511
lwrist -7.06609
lhand -18.6943 26.4405
lfingers 7.12502
lthumb 7.60027 56.2839
rfemur -8.2481 -2.79064 25.4654
rtibia 19.678
rfoot -6.07736 3.23707
rtoes 18.0511
lfemur -0.550987 -2.69453 -18.4179
ltibia 50.9927
lfoot 25.3835 -14.4128
ltoes 11.744
407
root -2.17123 18.1337 13.0501 -28.2378 -95.2581 25.824
lowerback 11.1026 0.498213 1.95485
upperback 0.677567 0.965247 1.98684
thorax -5.52381 0.426171 0.829304
lowerneck -22.1045 -5.85377 -11.5132
upperneck 27.1735 -7.25398 8.48824
head 13.6584 -3.35715 3.94806
rclavicle -5.81445e-015 -7.95139e-015
rhumerus -37.6728 -16.0853 -75.2093
rradius 29.8879
rwrist 5.56667
rhand -14.7262 9.05393
rfingers 7.12502
rthumb 11.4288 -20.6146
lclavicle -5.81445e-015 -7.95139e-015
lhumerus -37.0167 1.7075 85.1581
lradius 29.5585
lwrist -7.56779
lhand -18.3751 26.5095
lfingers 7.12502
lthumb 7.90829 56.3415
rfemur -7.57736 -2.77696 26.1083
rtibia 19.2701
rfoot -6.3121 3.28202
rtoes 17.6908
lfemur -1.85443 -2.47563 -17.6621
ltibia 52.8896
lfoot 23.4866 -14.2943
ltoes 9.56997
408
root -2.30022 18.1335 13.028 -29.9646 -95.2977 27.4257
lowerback 11.22 0.612477 1.97672
upperback 0.664549 1.12632 2.04085
thorax -5.60416 0.504418 0.847448
lowerneck -21.8596 -5.86911 -11.3643
upperneck 26.9936 -7.31784 8.4032
head 13.5287 -3.38412 3.8734
rclavicle -1.68967e-015 -1.39149e-014
rhumerus -37.3904 -15.3062 -75.4649
rradius 29.9721
rwrist 5.39776
rhand -15.5494 8.80765
rfingers 7.12502
rthumb 10.6349 -20.9032
lclavicle -1.68967e-015 -1.39149e-014
lhumerus -37.2107 1.59586 85.2289
lradius 29.6641
lwrist -7.98807
lhand -18.106 26.3875
lfingers 7.12502
lthumb 8.16805 56.2096
rfemur -6.81591 -2.77745 26.3047
rtibia 19.0253
rfoot -6.70859 3.1289
rtoes 17.9321
lfemur -3.00315 -2.28234 -17.3329
ltibia 54.598
lfoot 21.3103 -13.9692
ltoes 7.37413
409
root -2.4231 18.132 13.0071 -28.8093 -95.0427 26.0567
lowerback 11.465 0.679116 1.63922
upperback 0.683895 1.17618 1.97612
thorax -5.7264 0.536373 0.959539
lowerneck -21.7272 -5.89835 -11.2768
upperneck 26.921 -7.397 8.38268
head 13.4756 -3.41482 3.83446
rclavicle -1.00635e-014 7.95139e-015
rhumerus -37.0864 -14.8617 -75.6023
rradius 30.1036
rwrist 5.62696
rhand -15.6671 8.48216
rfingers 7.12502
rthumb 10.5213 -21.2345
lclavicle -1.00635e-014 7.95139e-015
lhumerus -37.3661 1.47806 85.2891
lradius 29.8521
lwrist -7.96708
lhand -18.2753 26.3922
lfingers 7.12502
lthumb 8.00463 56.2207
rfemur -6.11152 -2.76053 26.1221
rtibia 18.9408
rfoot -7.16088 2.70851
rtoes 17.1591
lfemur -4.0944 -2.22019 -17.4667
ltibia 56.0994
lfoot 19.0452 -13.6173
ltoes 6.09365
410
root -2.54811 18.1296 12.9958 -28.5205 -94.9152 25.6901
lowerback 11.4907 0.777414 1.66729
upperback 0.715412 1.30515 1.87588
thorax -5.70517 0.598243 0.817408
lowerneck -21.7224 -5.9839 -11.2315
upperneck 26.9473 -7.54339 8.38487
head 13.502 -3.47391 3.80009
rclavicle 7.15625e-015 1.07344e-014
rhumerus -36.6619 -15.4253 -75.4088
rradius 29.6782
rwrist 6.91618
rhand -15.805 8.55374
rfingers 7.12502
rthumb 10.3882 -21.1696
lclavicle 7.15625e-015 1.07344e-014
lhumerus -37.4509 1.4204 85.2858
lradius 30.0186
lwrist -8.14182
lhand -18.5068 26.529
lfingers 7.12502
lthumb 7.78124 56.3658
rfemur -5.59472 -2.67637 26.0696
rtibia 18.9559
rfoot -7.59088 2.34996
rtoes 16.37
lfemur -5.25237 -2.19172 -17.5224
ltibia 57.4201
lfoot 16.7398 -13.3052
ltoes 4.29441
411
root -2.67353 18.1291 12.9825 -28.9012 -94.9347 26.0041
lowerback 11.4895 0.891785 1.76365
upperback 0.749286 1.46576 1.83436
thorax -5.66574 0.674329 0.693781
lowerneck -21.7686 -6.05916 -11.2973
upperneck 27.0251 -7.67284 8.50718
head 13.5699 -3.52108 3.83713
rclavicle 6.75868e-015 -5.96354e-015
rhumerus -36.1622 -15.7115 -75.392
rradius 29.2028
rwrist 7.86715
rhand -16.6617 8.71145
rfingers 7.12502
rthumb 9.56172 -21.0516
lclavicle 6.75868e-015 -5.96354e-015
lhumerus -37.5711 1.56135 85.2259
lradius 30.1493
lwrist -8.38108
lhand -18.1059 26.2351
lfingers 7.12502
lthumb 8.16818 56.0572
rfemur -5.08574 -2.67902 26.1314
rtibia 18.9741
rfoot -7.94805 2.24316
rtoes 16.5128
lfemur -6.34594 -2.1292 -17.4327
ltibia 58.5552
lfoot 14.6812 -12.829
ltoes 2.02622
412
root -2.79822 18.1236 12.9611 -29.6809 -95.0156 26.6723
lowerback 11.5367 0.963408 1.79048
upperback 0.786403 1.56381 1.83882
thorax -5.65247 0.721485 0.667075
lowerneck -21.6296 -6.03888 -11.3903
upperneck 26.9313 -7.66241 8.64568
head 13.5118 -3.51099 3.91036
rclavicle -6.06293e-015 -2.06736e-014
rhumerus -35.6779 -15.3262 -75.6379
rradius 29.0374
rwrist 8.02682
rhand -17.0538 8.68819
rfingers 7.12502
rthumb 9.18341 -21.0918
lclavicle -6.06293e-015 -2.06736e-014
lhumerus -37.8036 1.96006 85.0505
lradius 30.413
lwrist -8.45993
lhand -17.1971 25.8875
lfingers 7.12502
lthumb 9.0452 55.6735
rfemur -4.47627 -2.70243 26.291
rtibia 18.9262
rfoot -8.33688 2.1517
rtoes 15.8549
lfemur -7.36045 -1.85405 -17.1727
ltibia 59.5326
lfoot 12.7175 -12.313
ltoes -0.232861
413
root -2.92223 18.1147 12.94 -30.9516 -95.0764 27.8107
lowerback 11.6463 1.02127 1.83011
upperback 0.790978 1.64921 1.8577
thorax -5.70843 0.761758 0.649018
lowerneck -21.4453 -5.99375 -11.4042
upperneck 26.8403 -7.62488 8.70247
head 13.4341 -3.4932 3.94265
rclavicle 5.34234e-015 1.19271e-015
rhumerus -35.2848 -15.0737 -75.7563
rradius 28.9016
rwrist 8.23647
rhand -17.2362 8.68501
rfingers 7.12502
rthumb 9.00744 -21.1027
lclavicle 5.34234e-015 1.19271e-015
lhumerus -38.095 2.47502 84.8171
lradius 30.6729
lwrist -8.52425
lhand -16.6477 25.5498
lfingers 7.12502
lthumb 9.57522 55.3122
rfemur -3.78815 -2.27763 26.5294
rtibia 18.8115
rfoot -8.67583 1.55157
rtoes 15.3095
lfemur -8.32947 -1.59146 -16.8914
ltibia 60.3659
lfoot 10.7756 -11.8725
ltoes -2.65448
